<?xml version="1.0" standalone="no"?>
<!DOCTYPE svg PUBLIC "-//W3C//DTD SVG 20010904//EN"
 "http://www.w3.org/TR/2001/REC-SVG-20010904/DTD/svg10.dtd">
<svg version="1.0" xmlns="http://www.w3.org/2000/svg"
 width="961.000000pt" height="961.000000pt" viewBox="0 0 961.000000 961.000000"
 preserveAspectRatio="xMidYMid meet">
<metadata>
Created by potrace 1.14, written by Peter Selinger 2001-2017
</metadata>
<g transform="translate(0.000000,961.000000) scale(0.100000,-0.100000)"
fill="#000000" stroke="none">
<path d="M5118 7468 c-14 -18 -116 -161 -228 -318 -112 -157 -207 -286 -212
-288 -4 -2 -8 -8 -8 -12 0 -5 -30 -51 -67 -102 -38 -51 -76 -104 -86 -118 -67
-93 -94 -131 -107 -150 -8 -12 -32 -45 -53 -73 -20 -29 -45 -63 -55 -76 -9
-13 -23 -30 -29 -37 -7 -7 -13 -15 -13 -19 0 -3 -24 -38 -53 -78 -29 -40 -59
-82 -67 -93 -8 -12 -34 -48 -57 -80 -23 -33 -87 -122 -142 -199 -55 -77 -108
-151 -118 -164 -10 -13 -31 -42 -48 -66 -43 -61 -148 -208 -157 -220 -48 -63
-78 -107 -78 -115 0 -6 -3 -10 -8 -10 -4 0 -43 -52 -87 -116 -44 -63 -88 -125
-97 -137 -15 -20 -76 -104 -280 -390 -35 -48 -67 -93 -73 -100 -5 -7 -30 -41
-55 -77 -24 -36 -48 -69 -53 -75 -5 -5 -35 -48 -68 -95 -33 -47 -65 -92 -72
-100 -7 -8 -61 -85 -122 -170 -60 -85 -113 -159 -118 -165 -4 -5 -111 -154
-237 -330 -437 -611 -419 -587 -429 -581 -5 3 -26 8 -47 12 -70 10 -79 12
-124 25 -25 7 -49 16 -55 21 -5 4 -15 8 -23 8 -32 0 -149 68 -203 118 -84 78
-121 157 -125 266 -4 125 42 278 118 394 15 24 28 45 28 47 0 8 122 177 144
201 6 6 36 39 66 74 166 192 448 440 730 644 52 38 111 81 130 96 86 64 451
299 567 365 10 6 61 35 113 65 128 74 186 106 240 133 25 12 47 24 50 27 3 3
18 12 33 20 25 12 185 220 171 220 -6 0 -175 -88 -309 -160 -44 -24 -143 -80
-220 -126 -77 -45 -158 -92 -180 -105 -22 -13 -42 -26 -45 -30 -3 -3 -19 -13
-36 -22 -32 -16 -416 -272 -449 -300 -11 -8 -76 -58 -145 -109 -69 -52 -136
-103 -150 -115 -256 -215 -232 -194 -386 -344 -146 -143 -248 -253 -317 -344
-4 -5 -19 -23 -32 -40 -51 -61 -159 -231 -206 -323 -45 -88 -91 -211 -103
-272 -3 -14 -8 -36 -11 -50 -10 -43 -8 -203 4 -255 37 -159 168 -314 338 -399
54 -27 146 -65 173 -72 8 -2 51 -13 95 -25 44 -12 87 -22 95 -23 17 -2 102
-16 140 -22 144 -24 656 -23 791 1 13 2 49 7 79 9 30 3 66 7 80 10 14 2 52 7
85 11 32 4 62 8 65 10 3 1 25 6 50 9 25 3 56 8 70 11 14 3 45 8 70 11 25 3 48
8 51 10 4 2 24 6 44 10 21 3 45 7 54 9 9 2 59 13 111 25 52 12 122 28 155 36
33 9 67 17 76 19 10 2 68 18 130 35 63 18 119 33 124 34 28 7 174 52 285 89
69 22 130 42 135 43 12 2 263 91 285 101 8 3 17 7 20 8 3 1 14 5 25 10 103 40
202 78 210 79 6 2 28 11 50 20 22 10 54 24 70 32 17 7 75 32 130 54 55 23 123
52 150 65 28 13 85 39 128 59 42 20 79 36 82 36 3 0 30 14 60 31 30 16 55 27
55 23 0 -3 6 -2 13 4 6 5 84 47 172 92 182 94 274 143 400 217 22 12 47 26 55
30 109 51 620 385 835 545 31 23 315 251 340 273 17 14 55 47 85 73 78 68 316
306 380 381 30 35 60 69 65 75 6 6 26 33 45 59 19 27 44 58 55 71 11 12 25 31
32 42 6 10 34 55 62 99 56 90 124 224 124 243 0 6 4 12 9 12 4 0 7 3 7 8 -1 4
0 9 1 12 1 3 3 12 6 20 2 8 10 40 19 70 24 86 26 100 30 186 11 244 -115 439
-364 563 -123 62 -271 105 -436 126 -22 3 -49 8 -60 10 -119 25 -546 25 -770
0 -22 -2 -62 -7 -90 -10 -27 -3 -61 -7 -75 -9 -14 -2 -47 -7 -75 -11 -148 -21
-218 -32 -310 -51 -38 -8 -86 -17 -105 -20 -19 -3 -53 -10 -75 -16 -22 -5 -49
-12 -60 -14 -61 -11 -116 -27 -121 -35 -3 -5 4 -23 16 -39 12 -17 18 -30 14
-30 -3 0 -1 -6 5 -14 9 -11 20 -12 44 -5 18 5 64 17 102 25 39 9 77 17 85 19
62 15 170 37 195 40 17 3 50 9 75 14 51 12 85 17 223 36 23 3 54 8 69 11 14 3
55 7 90 10 34 2 95 7 133 11 173 16 513 5 635 -21 198 -43 308 -94 401 -186
51 -51 70 -79 89 -130 93 -248 -66 -579 -470 -980 -159 -158 -159 -158 -304
-279 -161 -135 -551 -420 -560 -410 -4 5 -129 248 -331 644 -76 149 -172 338
-215 420 -43 83 -135 263 -205 400 -70 138 -132 256 -137 263 -6 6 -7 12 -4
12 4 0 -1 12 -11 28 -11 15 -58 104 -105 197 -47 94 -126 249 -175 345 -129
252 -309 600 -326 633 l-15 28 -24 -33z m-126 -2110 c76 -149 103 -200 135
-258 17 -30 61 -113 98 -185 37 -71 76 -143 85 -160 10 -16 46 -84 80 -150 34
-66 83 -158 108 -205 49 -90 140 -264 194 -367 18 -34 30 -64 28 -66 -10 -7
-379 -187 -435 -212 -33 -15 -80 -36 -105 -48 -25 -12 -47 -22 -50 -22 -3 -1
-27 -12 -55 -24 -131 -62 -487 -207 -650 -266 -27 -10 -56 -23 -62 -28 -7 -5
-13 -7 -13 -4 0 3 -17 -1 -37 -9 -20 -9 -44 -18 -52 -19 -9 -2 -75 -24 -146
-49 -72 -25 -175 -59 -230 -76 -55 -17 -107 -33 -115 -37 -8 -3 -22 -7 -30 -8
-8 -2 -58 -15 -110 -29 -52 -15 -102 -29 -110 -31 -97 -27 -142 -36 -148 -30
-4 4 -1 10 6 12 6 3 12 9 12 14 0 11 92 153 103 157 4 2 7 7 7 12 0 5 26 48
58 97 32 48 92 140 133 203 40 63 77 117 81 118 5 2 8 8 8 13 0 5 25 45 55 89
30 44 55 82 55 84 0 3 17 31 38 63 87 132 252 383 299 458 29 44 57 85 62 92
6 7 11 15 11 18 0 3 26 45 58 93 32 48 73 110 90 137 18 28 37 57 42 65 34 49
180 273 180 276 0 3 105 163 118 179 4 6 27 42 51 80 24 39 47 72 50 75 3 3
12 17 20 33 18 35 23 30 83 -85z"/>
<path d="M8525 5674 c-8 -20 -15 -38 -15 -40 0 -4 -91 -189 -117 -239 -9 -16
-20 -31 -25 -33 -4 -2 -8 -8 -8 -13 0 -5 -28 -51 -62 -102 -264 -394 -656
-789 -1168 -1175 -74 -56 -140 -106 -146 -111 -6 -5 -28 -20 -50 -34 -21 -15
-77 -53 -124 -87 -47 -33 -92 -63 -100 -67 -8 -4 -19 -11 -25 -15 -20 -16
-115 -78 -119 -78 -3 0 -31 -17 -63 -39 -56 -37 -401 -241 -408 -241 -2 0 -47
-25 -100 -55 -54 -30 -103 -55 -111 -55 -7 0 -16 -5 -19 -10 -13 -22 -480
-243 -788 -374 -218 -92 -209 -88 -231 -93 -11 -2 -24 -7 -30 -11 -6 -5 -31
-16 -56 -25 -25 -9 -58 -22 -75 -28 -16 -7 -32 -13 -35 -14 -26 -6 -87 -29
-95 -35 -5 -5 -12 -8 -15 -8 -7 1 -51 -12 -75 -22 -60 -25 -453 -149 -555
-176 -8 -2 -103 -26 -210 -54 -107 -28 -206 -53 -220 -55 -14 -3 -34 -7 -45
-9 -11 -2 -76 -16 -146 -30 -69 -14 -138 -28 -155 -31 -16 -3 -42 -8 -59 -10
-59 -9 -101 -15 -155 -25 -30 -5 -80 -12 -110 -15 -94 -10 -144 -15 -175 -20
-132 -20 -562 -32 -735 -21 -69 4 -11 -17 105 -38 49 -9 112 -19 132 -22 12
-1 34 -5 50 -8 36 -7 209 -24 333 -33 172 -12 487 -6 695 12 28 3 79 7 115 10
36 3 76 7 90 10 14 2 48 7 75 11 55 7 81 10 140 18 141 19 427 79 645 136 85
22 164 43 175 45 11 3 48 14 82 25 34 11 70 22 80 23 10 2 25 7 33 10 8 3 49
17 90 30 103 33 278 95 317 113 17 8 38 14 46 14 9 0 18 4 21 9 3 5 18 12 32
15 14 4 45 15 68 25 22 11 77 33 121 51 44 18 122 52 174 76 51 24 95 44 97
44 6 0 346 171 411 207 127 69 153 83 162 83 5 0 14 -12 20 -27 5 -16 31 -66
56 -113 25 -47 74 -137 107 -200 150 -282 145 -273 159 -264 7 4 70 5 159 3 8
-1 35 0 60 0 25 0 52 1 60 0 58 -3 264 0 300 4 14 2 37 0 52 -4 15 -4 30 -4
33 1 3 4 20 5 37 1 30 -7 46 -6 118 2 14 2 37 0 52 -4 15 -4 30 -4 33 1 2 4
19 5 37 1 18 -4 52 -4 76 -1 23 4 42 3 42 -2 0 -5 5 -6 12 -2 6 4 29 6 51 6
46 -2 62 5 49 21 -5 7 -56 102 -112 212 -57 110 -113 219 -126 243 -13 23 -21
42 -19 42 3 0 -5 17 -18 38 -13 20 -54 98 -92 172 -37 74 -108 214 -156 309
-49 96 -86 178 -82 181 5 4 35 28 68 55 233 191 515 464 682 662 45 53 59 71
132 164 82 105 161 216 161 224 0 3 9 15 20 27 11 12 20 27 20 33 0 7 9 20 20
30 11 10 20 24 20 32 0 7 3 13 8 13 4 0 12 10 18 23 18 38 79 152 84 157 32
32 186 427 206 526 1 6 5 21 9 33 11 35 -4 24 -20 -15z"/>
</g>
</svg>
